<?xml version="1.0" standalone="no"?>
<!DOCTYPE svg PUBLIC "-//W3C//DTD SVG 20010904//EN"
 "http://www.w3.org/TR/2001/REC-SVG-20010904/DTD/svg10.dtd">
<svg version="1.0" xmlns="http://www.w3.org/2000/svg"
 width="400.000000pt" height="400.000000pt" viewBox="0 0 400.000000 400.000000"
 preserveAspectRatio="xMidYMid meet">
<metadata>
Created by potrace 1.11, written by Peter Selinger 2001-2013
</metadata>
<g transform="translate(0.000000,400.000000) scale(0.100000,-0.100000)"
fill="#000000" stroke="none">
<path d="M1106 3161 c-4 -7 -5 -15 -2 -18 9 -9 19 4 14 18 -4 11 -6 11 -12 0z"/>
<path d="M1280 3140 c0 -13 7 -20 20 -20 24 0 27 25 4 34 -23 9 -24 8 -24 -14z"/>
<path d="M2320 3050 c0 -5 7 -10 16 -10 8 0 12 5 9 10 -3 6 -10 10 -16 10 -5
0 -9 -4 -9 -10z"/>
<path d="M2375 3030 c3 -5 10 -10 16 -10 5 0 9 5 9 10 0 6 -7 10 -16 10 -8 0
-12 -4 -9 -10z"/>
<path d="M1186 3001 c-4 -7 -5 -15 -2 -18 9 -9 19 4 14 18 -4 11 -6 11 -12 0z"/>
<path d="M1120 2956 c0 -8 -7 -16 -15 -20 -21 -8 -35 -47 -23 -68 11 -22 38
-24 38 -3 0 8 9 15 19 15 23 0 62 46 55 65 -10 24 -74 34 -74 11z"/>
<path d="M1360 2945 c0 -11 8 -13 33 -8 50 9 56 23 9 23 -30 0 -42 -4 -42 -15z"/>
<path d="M2540 2951 c0 -6 5 -13 10 -16 6 -3 10 1 10 9 0 9 -4 16 -10 16 -5 0
-10 -4 -10 -9z"/>
<path d="M2560 2900 c0 -15 7 -20 24 -20 14 0 28 -4 31 -10 3 -5 10 -10 16
-10 5 0 9 5 9 10 0 6 -6 10 -14 10 -7 0 -16 9 -19 20 -3 12 -14 20 -26 20 -14
0 -21 -6 -21 -20z"/>
<path d="M1360 2890 c0 -5 5 -10 10 -10 6 0 10 5 10 10 0 6 -4 10 -10 10 -5 0
-10 -4 -10 -10z"/>
<path d="M2720 2840 c0 -36 -2 -40 -25 -40 -30 0 -32 -11 -7 -33 25 -23 32
-21 32 6 1 12 7 33 15 47 19 33 19 60 0 60 -11 0 -15 -11 -15 -40z"/>
<path d="M1490 2790 c19 -13 30 -13 30 0 0 6 -10 10 -22 10 -19 0 -20 -2 -8
-10z"/>
<path d="M1508 2763 c-60 -3 -68 -6 -68 -23 0 -14 -7 -20 -23 -20 -13 0 -33
-9 -45 -20 -12 -11 -25 -20 -30 -20 -6 0 -18 -12 -27 -27 -27 -42 -78 -85 -95
-80 -14 4 -16 -11 -13 -112 4 -122 30 -221 59 -221 8 0 14 -6 14 -12 1 -7 11
-25 23 -41 21 -24 30 -27 95 -29 40 -1 72 -6 72 -10 0 -13 65 -9 102 7 21 8
50 12 71 8 31 -5 39 -1 65 28 17 19 36 51 43 72 8 23 18 37 29 37 14 0 16 8
12 50 -2 28 -1 50 4 50 21 0 -1 175 -28 231 -13 28 -62 66 -79 62 -5 -2 -9 4
-9 12 0 11 -11 15 -40 15 -36 0 -40 3 -40 25 0 14 -5 24 -12 23 -7 -1 -43 -3
-80 -5z m72 -127 c0 -3 -4 -8 -10 -11 -5 -3 -10 -1 -10 4 0 6 5 11 10 11 6 0
10 -2 10 -4z m-20 -71 c0 -8 -4 -15 -9 -15 -13 0 -22 16 -14 24 11 11 23 6 23
-9z m35 5 c3 -5 1 -10 -4 -10 -6 0 -11 5 -11 10 0 6 2 10 4 10 3 0 8 -4 11
-10z m155 -20 c0 -5 -2 -10 -4 -10 -3 0 -8 5 -11 10 -3 6 -1 10 4 10 6 0 11
-4 11 -10z m-20 -40 c0 -5 -4 -10 -10 -10 -5 0 -10 5 -10 10 0 6 5 10 10 10 6
0 10 -4 10 -10z m27 -36 c-3 -3 -12 -4 -19 -1 -8 3 -5 6 6 6 11 1 17 -2 13 -5z
m-42 -44 c3 -5 -3 -10 -14 -10 -12 0 -21 5 -21 10 0 6 6 10 14 10 8 0 18 -4
21 -10z"/>
<path d="M2187 2740 c-14 -11 -30 -20 -36 -20 -6 0 -11 -4 -11 -9 0 -5 -8 -12
-17 -15 -23 -7 -73 -86 -73 -115 0 -11 -4 -21 -9 -21 -4 0 -11 -21 -15 -47 -8
-60 19 -193 40 -193 8 0 14 -9 14 -21 0 -21 68 -91 81 -83 5 2 13 -4 18 -14
16 -30 160 -41 195 -15 14 10 26 26 26 36 0 14 9 17 47 17 49 0 113 18 113 32
0 4 8 16 19 27 10 10 21 25 23 32 4 12 7 12 21 0 15 -12 17 -11 17 11 0 13 -9
34 -20 46 -12 12 -16 23 -10 27 23 14 6 36 -60 77 -39 24 -69 49 -67 57 3 23
24 24 46 2 12 -12 23 -21 26 -21 10 0 0 105 -11 117 -7 7 -23 15 -38 19 -30 7
-33 21 -8 40 15 12 9 13 -40 14 -43 0 -58 4 -58 14 0 19 -32 26 -116 26 -56 0
-77 -4 -97 -20z m263 -140 c0 -5 -4 -10 -10 -10 -5 0 -10 5 -10 10 0 6 5 10
10 10 6 0 10 -4 10 -10z m-66 -26 c3 -8 2 -12 -4 -9 -6 3 -10 10 -10 16 0 14
7 11 14 -7z m96 -4 c0 -5 -4 -10 -10 -10 -5 0 -10 5 -10 10 0 6 5 10 10 10 6
0 10 -4 10 -10z m-240 -40 c0 -16 -2 -30 -4 -30 -2 0 -6 14 -8 30 -3 17 -1 30
4 30 4 0 8 -13 8 -30z m-97 -27 c-13 -2 -33 -2 -45 0 -13 2 -3 4 22 4 25 0 35
-2 23 -4z m17 -33 c0 -5 -2 -10 -4 -10 -3 0 -8 5 -11 10 -3 6 -1 10 4 10 6 0
11 -4 11 -10z m0 -60 c0 -5 -5 -10 -11 -10 -5 0 -7 5 -4 10 3 6 8 10 11 10 2
0 4 -4 4 -10z"/>
<path d="M2801 2704 c0 -11 3 -14 6 -6 3 7 2 16 -1 19 -3 4 -6 -2 -5 -13z"/>
<path d="M3040 2705 c0 -8 -8 -15 -17 -15 -10 0 -25 -4 -32 -9 -12 -8 -9 -11
11 -16 19 -5 33 -1 52 16 31 27 33 39 6 39 -11 0 -20 -7 -20 -15z"/>
<path d="M2720 2661 c0 -12 6 -21 15 -21 8 0 15 4 15 9 0 5 -7 14 -15 21 -13
10 -15 9 -15 -9z"/>
<path d="M2825 2650 c-3 -5 1 -10 9 -10 9 0 16 5 16 10 0 6 -4 10 -9 10 -6 0
-13 -4 -16 -10z"/>
<path d="M2687 2603 c20 -26 29 -32 31 -20 2 9 -6 25 -17 36 -35 35 -44 24
-14 -16z"/>
<path d="M2775 2630 c3 -5 10 -10 16 -10 5 0 9 5 9 10 0 6 -7 10 -16 10 -8 0
-12 -4 -9 -10z"/>
<path d="M2964 2631 c10 -15 76 -19 76 -4 0 9 -14 13 -41 13 -22 0 -38 -4 -35
-9z"/>
<path d="M2640 2570 c0 -5 5 -10 11 -10 5 0 7 5 4 10 -3 6 -8 10 -11 10 -2 0
-4 -4 -4 -10z"/>
<path d="M2960 2570 c0 -5 12 -10 28 -10 21 0 24 2 12 10 -20 13 -40 13 -40 0z"/>
<path d="M442 2543 c5 -26 38 -29 38 -4 0 15 -6 21 -21 21 -14 0 -19 -5 -17
-17z"/>
<path d="M2880 2539 c0 -24 23 -21 28 4 2 10 -3 17 -12 17 -10 0 -16 -9 -16
-21z"/>
<path d="M2758 2544 c-14 -22 64 -144 92 -144 10 0 -29 73 -42 78 -4 2 -8 15
-8 28 0 14 -6 24 -14 24 -8 0 -16 5 -18 12 -3 7 -7 8 -10 2z"/>
<path d="M3006 2495 c-3 -9 0 -15 8 -15 8 0 17 -6 19 -12 3 -7 6 -1 6 15 1 29
-23 38 -33 12z"/>
<path d="M662 2469 c2 -6 8 -10 13 -10 5 0 11 4 13 10 2 6 -4 11 -13 11 -9 0
-15 -5 -13 -11z"/>
<path d="M2865 2470 c3 -5 8 -10 11 -10 2 0 4 5 4 10 0 6 -5 10 -11 10 -5 0
-7 -4 -4 -10z"/>
<path d="M3040 2330 c0 -5 9 -10 21 -10 11 0 17 5 14 10 -3 6 -13 10 -21 10
-8 0 -14 -4 -14 -10z"/>
<path d="M643 2280 c0 -25 2 -35 4 -22 2 12 2 32 0 45 -2 12 -4 2 -4 -23z"/>
<path d="M1060 2280 c0 -29 4 -40 15 -40 11 0 15 11 15 40 0 29 -4 40 -15 40
-11 0 -15 -11 -15 -40z"/>
<path d="M2800 2310 c0 -5 7 -7 15 -4 8 4 15 8 15 10 0 2 -7 4 -15 4 -8 0 -15
-4 -15 -10z"/>
<path d="M743 2200 c0 -25 2 -35 4 -22 2 12 2 32 0 45 -2 12 -4 2 -4 -23z"/>
<path d="M2720 2229 c0 -5 5 -7 10 -4 6 3 10 8 10 11 0 2 -4 4 -10 4 -5 0 -10
-5 -10 -11z"/>
<path d="M2765 2184 c-24 -19 -26 -24 -12 -24 21 0 50 26 45 39 -2 5 -16 -1
-33 -15z"/>
<path d="M1082 2139 c-19 -29 -6 -37 18 -11 23 25 25 32 7 32 -7 0 -18 -9 -25
-21z"/>
<path d="M2763 2134 c-43 -48 -23 -67 46 -43 36 13 44 49 11 49 -11 0 -20 5
-20 10 0 17 -14 11 -37 -16z"/>
<path d="M2850 2150 c0 -5 7 -10 15 -10 8 0 15 5 15 10 0 6 -7 10 -15 10 -8 0
-15 -4 -15 -10z"/>
<path d="M3165 2090 c-3 -5 3 -10 15 -10 12 0 18 5 15 10 -3 6 -10 10 -15 10
-5 0 -12 -4 -15 -10z"/>
<path d="M545 2070 c3 -5 8 -10 11 -10 2 0 4 5 4 10 0 6 -5 10 -11 10 -5 0 -7
-4 -4 -10z"/>
<path d="M3100 2065 c-24 -14 -24 -14 -4 -15 12 0 24 7 28 15 6 18 7 18 -24 0z"/>
<path d="M3255 2010 c-3 -5 1 -10 9 -10 9 0 16 5 16 10 0 6 -4 10 -9 10 -6 0
-13 -4 -16 -10z"/>
<path d="M3080 2003 c47 -5 44 -23 -4 -23 -36 0 -56 -15 -56 -42 0 -11 -7 -18
-20 -18 -17 0 -20 -7 -20 -40 0 -22 -4 -40 -10 -40 -5 0 -10 -18 -10 -40 0
-22 -3 -40 -8 -40 -7 0 -25 -30 -38 -62 -3 -10 -10 -18 -15 -18 -5 0 -9 -18
-9 -39 0 -22 -4 -41 -9 -43 -9 -3 -22 -85 -21 -135 0 -13 -6 -23 -14 -23 -9 0
-14 15 -14 49 -2 51 -27 131 -42 131 -5 0 -12 -4 -15 -10 -3 -5 1 -10 9 -10
20 0 22 -70 4 -88 -22 -22 -28 -13 -28 38 0 42 -3 50 -19 50 -14 0 -20 -9 -23
-37 -3 -21 -1 -40 3 -43 12 -8 -2 -51 -15 -47 -6 2 -15 13 -21 25 -5 12 -13
22 -17 22 -12 0 -10 48 2 55 6 3 10 10 10 16 0 5 -4 9 -10 9 -5 0 -10 -7 -10
-15 0 -8 -4 -15 -10 -15 -16 0 -12 27 5 34 8 3 15 12 15 21 0 9 9 15 25 15 18
0 25 5 25 20 0 11 4 20 8 20 7 0 32 57 32 73 0 4 -9 7 -20 7 -13 0 -20 -7 -20
-20 0 -28 -30 -60 -57 -60 -29 0 -32 36 -3 45 22 7 27 31 8 38 -7 3 2 10 20
17 17 7 32 16 32 22 0 14 -103 5 -108 -9 -2 -7 3 -13 12 -13 9 0 16 -4 16 -10
0 -5 -7 -10 -15 -10 -11 0 -15 -11 -15 -40 0 -29 4 -40 15 -40 9 0 15 -9 15
-25 0 -16 -6 -25 -15 -25 -8 0 -15 -7 -15 -15 0 -9 -9 -15 -25 -15 -24 0 -25
-3 -25 -55 0 -58 -21 -105 -46 -105 -10 0 -14 -13 -14 -40 0 -33 3 -40 20 -40
17 0 20 7 20 40 0 37 2 40 28 40 24 -1 25 -2 10 -14 -10 -7 -18 -25 -18 -40 0
-14 -4 -26 -10 -26 -5 0 -10 -6 -10 -14 0 -7 -7 -19 -15 -26 -11 -9 -13 -23
-9 -51 4 -26 3 -39 -5 -39 -6 0 -11 11 -11 25 0 14 -5 25 -11 25 -6 0 -9 -16
-8 -37 2 -21 -3 -47 -10 -58 -9 -15 -11 -16 -7 -2 4 12 0 17 -14 17 -12 0 -20
-7 -20 -17 0 -10 -5 -25 -10 -33 -8 -11 -9 -8 -4 11 3 15 1 30 -5 33 -6 4 -11
16 -11 27 0 15 -7 19 -39 19 -22 0 -41 5 -43 12 -2 6 -10 8 -16 4 -17 -10 -15
-26 3 -26 8 0 15 -6 15 -14 0 -8 10 -16 23 -18 20 -3 20 -4 -5 -9 -19 -4 -34
0 -47 12 -11 11 -27 19 -36 19 -9 0 -18 12 -21 30 -7 34 -21 38 -40 13 -13
-17 -13 -17 -14 0 0 9 -6 17 -12 18 -7 0 4 9 25 18 29 14 35 20 22 25 -9 3
-25 6 -35 6 -13 0 -20 9 -23 28 -2 17 -5 10 -6 -20 -3 -97 -41 -137 -41 -44 0
59 -20 126 -27 93 -6 -23 -37 -18 -41 6 -3 12 4 20 17 24 12 3 21 9 21 14 0
13 -27 11 -50 -3 -10 -7 -23 -9 -27 -5 -4 5 -1 12 7 17 12 7 11 13 -8 33 -24
25 -29 47 -10 47 6 0 9 3 5 6 -7 8 -67 -5 -67 -15 0 -4 13 -22 29 -40 17 -19
32 -50 36 -72 5 -31 11 -39 28 -39 27 0 19 -6 -19 -13 -29 -5 -31 -4 -32 24
-1 44 -12 69 -28 69 -12 0 -15 -13 -12 -69 3 -81 -5 -98 -22 -47 -6 20 -15 36
-19 36 -5 0 -13 -19 -18 -42 l-11 -43 -1 43 -1 42 -48 0 c-26 0 -53 5 -59 11
-6 6 -27 12 -48 14 -20 2 -43 9 -51 16 -11 9 -17 9 -30 -2 -11 -9 -18 -9 -22
-2 -9 14 -91 21 -96 8 -2 -5 -5 -2 -5 7 -1 9 -7 18 -13 21 -7 2 14 5 46 6 39
1 62 -3 67 -11 7 -10 11 -10 21 0 9 9 9 12 -5 12 -9 0 -17 5 -17 11 0 8 13 9
40 5 31 -5 40 -3 40 8 0 19 -72 44 -78 27 -6 -17 -82 -14 -82 3 0 9 -14 15
-40 18 -22 2 -40 -1 -40 -5 0 -5 -6 -4 -14 2 -7 6 -31 10 -54 9 -30 -1 -50 6
-74 24 -30 23 -35 24 -65 11 -18 -7 -33 -10 -33 -6 0 5 -5 1 -11 -7 -8 -12 -9
-8 -5 15 3 17 8 40 12 53 7 24 -10 30 -36 11 -11 -8 -12 -12 -2 -16 6 -2 12
-12 12 -20 0 -12 -3 -13 -15 -3 -8 6 -18 9 -24 6 -5 -3 -11 0 -14 6 -3 10 -9
10 -26 0 -12 -7 -27 -9 -34 -5 -13 8 -19 9 -64 11 -33 2 -33 3 -33 52 0 37 -4
50 -15 50 -10 0 -14 -10 -12 -37 2 -32 -1 -38 -18 -38 -18 0 -20 6 -17 51 2
30 -1 55 -7 58 -14 9 -15 -118 -1 -144 5 -10 19 -63 29 -119 11 -55 24 -109
30 -120 6 -11 11 -31 11 -45 0 -13 4 -26 8 -28 4 -1 18 -36 31 -77 19 -60 21
-75 10 -82 -10 -6 -15 -3 -18 9 -2 9 -7 22 -11 27 -4 6 -11 26 -15 45 -4 19
-11 41 -15 50 -4 8 -18 42 -30 75 -35 95 -44 115 -52 115 -5 0 -8 -7 -8 -15 0
-8 5 -15 10 -15 6 0 10 -20 10 -44 0 -25 4 -47 9 -50 9 -6 27 -102 22 -120 -1
-5 8 -29 21 -53 l23 -44 -27 -20 c-35 -26 -39 -82 -8 -99 29 -15 25 -38 -10
-58 -20 -11 -29 -23 -26 -34 2 -10 -1 -15 -9 -12 -8 3 -15 -9 -19 -35 -4 -27
-11 -41 -21 -41 -8 0 -15 -9 -15 -20 0 -11 -4 -20 -10 -20 -5 0 -10 -16 -10
-35 0 -41 12 -45 28 -10 11 25 32 34 32 15 0 -5 5 -10 10 -10 13 0 13 37 0 45
-14 9 -12 36 2 34 7 -1 20 -1 30 0 18 1 78 100 78 130 0 11 5 23 10 26 6 3 10
17 10 30 0 34 10 55 26 55 10 0 14 -15 15 -52 0 -29 3 -47 6 -40 5 14 43 17
43 2 0 -5 -7 -13 -16 -18 -12 -7 -17 -25 -18 -71 -1 -42 -6 -65 -16 -71 -10
-6 -16 -32 -18 -79 -4 -68 -3 -71 18 -71 19 0 21 -4 15 -22 -4 -13 -10 -41
-15 -63 -4 -22 -8 -32 -9 -23 -2 25 -41 68 -63 68 -16 0 -17 -6 -12 -57 8 -72
12 -76 20 -24 8 52 24 53 24 1 0 -22 4 -40 9 -40 6 0 11 -15 13 -32 2 -21 8
-33 18 -33 11 0 16 -13 18 -47 2 -29 -1 -48 -7 -48 -6 0 -11 18 -11 40 0 22
-5 40 -10 40 -11 0 -69 -60 -70 -72 0 -5 17 -8 38 -9 l37 -1 -38 -15 c-32 -14
-37 -20 -37 -49 0 -33 -1 -34 -40 -34 -33 0 -40 -4 -40 -19 0 -11 10 -22 23
-26 l22 -7 -25 -7 c-14 -4 -30 -18 -36 -31 -17 -36 -32 -71 -44 -102 l-10 -28
111 0 c83 0 114 4 125 15 15 15 48 10 38 -6 -3 -5 4 -9 15 -9 21 0 28 14 12
24 -5 4 -4 16 2 30 l12 24 185 -2 c102 -1 191 -5 199 -10 10 -7 13 -5 9 5 -4
11 5 14 41 15 25 0 88 7 140 14 85 11 95 11 103 -4 12 -22 44 -20 75 4 31 24
43 18 43 -21 0 -33 7 -36 36 -14 26 20 54 19 56 -2 0 -10 2 -22 3 -28 2 -5 3
-16 4 -22 1 -10 35 -13 136 -13 144 0 139 -2 135 53 -1 19 3 27 14 27 9 0 16
5 16 11 0 6 -16 9 -37 7 -31 -2 -39 -7 -41 -26 -5 -32 -26 -22 -29 14 -1 18
-13 37 -30 51 -22 18 -24 23 -10 23 21 0 22 23 2 40 -8 7 -15 18 -15 25 0 12
-65 26 -75 16 -3 -2 -5 -22 -5 -44 0 -51 -23 -45 -30 9 -3 21 -9 45 -13 52
-10 16 -37 16 -37 0 0 -7 -11 -18 -23 -24 -32 -14 -50 4 -31 31 21 28 18 55
-6 55 -13 0 -20 -7 -20 -20 0 -17 -7 -20 -40 -20 -33 0 -40 -3 -40 -20 0 -21
-24 -28 -35 -10 -3 6 -15 10 -26 10 -10 0 -19 -4 -19 -10 0 -5 -7 -10 -15 -10
-20 0 -19 17 2 29 15 8 18 24 16 110 l-1 101 39 0 c31 0 39 -4 39 -18 0 -9 -9
-23 -20 -30 -35 -21 -22 -32 39 -32 38 0 61 -5 65 -12 5 -11 7 -11 12 0 4 8
37 12 115 12 100 0 109 2 109 19 0 21 19 31 56 31 22 0 24 -4 24 -45 0 -39 4
-47 40 -76 22 -18 40 -38 40 -45 0 -7 18 -15 40 -19 22 -4 40 -11 40 -16 0 -5
7 -9 15 -9 11 0 15 11 15 40 l0 40 -55 0 c-42 0 -55 3 -55 15 0 11 11 15 40
15 22 0 40 -5 40 -11 0 -5 15 1 33 15 42 32 47 32 47 1 0 -14 4 -25 9 -25 14
0 51 -95 51 -131 0 -52 -83 -114 -105 -78 -4 6 -19 7 -37 4 -24 -6 -30 -3 -35
14 -7 28 -43 28 -43 1 0 -11 7 -23 15 -26 8 -4 15 -12 15 -19 0 -7 7 -16 17
-19 14 -6 11 -12 -16 -40 l-32 -33 260 -2 c168 -1 261 2 261 9 0 17 -40 76
-41 60 0 -10 -4 -7 -11 7 -8 16 -7 30 3 52 17 39 34 34 35 -9 0 -28 5 -35 25
-41 23 -6 25 -4 21 16 -2 13 3 33 11 46 8 13 18 41 21 61 6 30 4 38 -9 38 -11
0 -15 -11 -15 -40 0 -22 -2 -40 -5 -40 -12 0 -64 66 -65 81 0 8 12 27 28 41
25 24 31 25 82 18 88 -13 120 -12 120 5 0 12 -16 15 -80 15 -61 0 -80 3 -80
14 0 22 40 66 60 66 10 0 20 6 23 13 4 9 7 9 18 -1 11 -10 10 -12 -4 -12 -11
0 -17 -8 -17 -23 0 -20 5 -23 38 -22 l37 1 3 62 c3 57 5 62 25 62 27 0 57 32
57 60 0 13 7 20 19 20 16 0 17 5 11 39 -4 22 -1 59 6 89 8 29 12 87 10 131 -3
65 0 86 15 111 10 16 23 30 29 30 5 0 10 18 10 40 0 22 -4 40 -10 40 -5 0 -10
10 -10 23 l0 22 -20 -25 c-21 -27 -21 -27 -38 13 -7 15 -17 25 -22 22 -6 -3
-10 1 -10 9 0 9 6 15 12 13 7 -1 14 9 16 22 5 31 -7 91 -17 91 -4 0 -21 -30
-36 -67 -15 -38 -32 -72 -37 -78 -4 -5 -8 -21 -8 -35 0 -14 -8 -30 -20 -38
-26 -16 -25 -26 3 -40 20 -9 17 -11 -20 -11 -36 -1 -43 -4 -43 -21 0 -30 -36
-60 -71 -60 l-30 0 20 29 c12 16 21 33 21 38 0 4 10 13 22 18 32 15 56 64 57
117 1 26 10 67 20 90 11 24 23 57 27 73 3 17 8 25 11 18 6 -17 39 18 47 51 6
23 9 26 21 16 12 -10 15 -9 15 8 0 11 -6 22 -12 25 -9 3 -7 11 7 28 35 42 45
68 45 118 0 41 3 51 21 56 16 5 19 12 14 35 -4 20 -2 29 9 33 9 4 16 16 16 27
0 23 -15 27 -24 5 -8 -23 -41 -18 -61 9 -16 20 -21 22 -38 13 -37 -21 -57 -47
-57 -71 0 -40 -28 -96 -48 -96 -10 0 -21 2 -24 5 -7 7 15 75 24 75 5 0 4 84
-3 140 -6 49 2 100 16 100 11 0 15 11 15 36 0 48 21 68 65 60 22 -4 35 -13 35
-22 0 -12 3 -12 14 -2 11 10 11 21 2 53 -11 38 -14 40 -54 41 l-42 1 40 -4z
m-153 -456 c-19 -29 -47 -34 -47 -9 0 19 38 44 53 35 5 -3 2 -15 -6 -26z
m-1970 -14 c-3 -10 -5 -4 -5 12 0 17 2 24 5 18 2 -7 2 -21 0 -30z m243 -23 c0
-5 -2 -10 -4 -10 -3 0 -8 5 -11 10 -3 6 -1 10 4 10 6 0 11 -4 11 -10z m-140
-32 c0 -5 -4 -8 -10 -8 -5 0 -10 10 -10 23 0 18 2 19 10 7 5 -8 10 -18 10 -22z
m365 -26 c19 -11 18 -11 -7 -12 -18 0 -28 5 -28 15 0 8 -7 15 -15 15 -8 0 -15
8 -15 17 0 14 3 14 23 -4 12 -11 31 -25 42 -31z m-115 -2 c0 -4 -8 -10 -19
-13 -14 -3 -17 0 -14 14 5 17 33 16 33 -1z m-270 0 c0 -5 -4 -10 -10 -10 -5 0
-10 5 -10 10 0 6 5 10 10 10 6 0 10 -4 10 -10z m89 -12 c0 -13 -3 -17 -6 -10
-2 6 -14 12 -26 13 -20 1 -20 2 3 9 14 4 26 8 28 9 1 1 2 -9 1 -21z m71 12 c0
-5 -5 -10 -11 -10 -5 0 -7 5 -4 10 3 6 8 10 11 10 2 0 4 -4 4 -10z m1440 -55
c0 -8 -4 -15 -10 -15 -5 0 -10 7 -10 15 0 8 5 15 10 15 6 0 10 -7 10 -15z
m-543 -97 c-2 -13 -4 -3 -4 22 0 25 2 35 4 23 2 -13 2 -33 0 -45z m523 52 c0
-5 -7 -10 -15 -10 -8 0 -15 5 -15 10 0 6 7 10 15 10 8 0 15 -4 15 -10z m147 4
c-3 -3 -12 -4 -19 -1 -8 3 -5 6 6 6 11 1 17 -2 13 -5z m-687 -29 c0 -8 -7 -15
-15 -15 -8 0 -15 7 -15 15 0 8 7 15 15 15 8 0 15 -7 15 -15z m979 -32 c1 -7
-3 -13 -9 -13 -5 0 -10 15 -9 33 0 27 2 29 9 12 5 -11 9 -26 9 -32z m-499 -5
c0 -16 -3 -19 -11 -11 -6 6 -8 16 -5 22 11 17 16 13 16 -11z m40 7 c0 -8 -7
-15 -16 -15 -14 0 -14 3 -4 15 7 8 14 15 16 15 2 0 4 -7 4 -15z m-383 -87 c-3
-8 -6 -5 -6 6 -1 11 2 17 5 13 3 -3 4 -12 1 -19z m183 -38 c0 -5 -6 -10 -14
-10 -8 0 -18 5 -21 10 -3 6 3 10 14 10 12 0 21 -4 21 -10z m-110 -40 c0 -5 -4
-10 -10 -10 -5 0 -10 5 -10 10 0 6 5 10 10 10 6 0 10 -4 10 -10z m-1293 -82
c-3 -8 -6 -5 -6 6 -1 11 2 17 5 13 3 -3 4 -12 1 -19z m-38 -35 c0 -25 -1 -25
-8 -8 -5 11 -7 23 -4 28 8 14 13 7 12 -20z m191 -39 c0 -11 16 -14 65 -14 l65
0 0 -34 c0 -27 -10 -45 -42 -80 -35 -39 -47 -46 -79 -46 -20 0 -39 -4 -41 -10
-1 -5 -3 17 -3 49 0 33 3 54 7 48 10 -16 18 -5 25 37 4 29 2 36 -11 36 -11 0
-16 9 -16 26 0 22 2 25 15 14 8 -7 15 -19 15 -26z m1730 2 c0 -16 -32 -26 -60
-19 -40 11 -18 27 43 32 9 0 17 -5 17 -13z m-1480 -26 c0 -5 -9 -10 -20 -10
-11 0 -20 5 -20 10 0 6 9 10 20 10 11 0 20 -4 20 -10z m43 -20 c-3 -11 -12
-20 -19 -20 -20 0 -17 28 4 33 9 3 18 5 19 6 0 0 -1 -8 -4 -19z m1113 -17
c-11 -11 -19 6 -11 24 8 17 8 17 12 0 3 -10 2 -21 -1 -24z m-1171 -23 c3 -5
17 -10 31 -10 13 0 24 -4 24 -10 0 -5 -18 -10 -40 -10 -29 0 -40 -4 -40 -15 0
-11 -11 -15 -37 -15 l-38 0 38 25 c20 14 37 30 37 35 0 13 17 13 25 0z m141
-26 c-3 -9 -6 -27 -6 -40 0 -20 -5 -24 -31 -24 -20 0 -29 -4 -26 -12 2 -7 10
-12 16 -10 6 1 11 -9 11 -23 0 -17 -6 -25 -17 -26 -17 -1 -17 -2 0 -6 12 -3
17 -15 17 -44 0 -38 -20 -49 -20 -11 -1 12 -5 10 -15 -8 -13 -23 -14 -19 -15
58 0 66 -3 82 -15 82 -8 0 -15 -6 -15 -12 0 -9 -2 -10 -8 -2 -4 7 -16 14 -27
17 -11 2 -1 5 23 6 31 1 42 5 42 16 0 11 8 15 28 13 23 -3 27 0 25 20 -2 16 2
22 18 22 15 0 19 -4 15 -16z m1384 -18 c0 -13 -7 -29 -15 -36 -13 -11 -15 -7
-15 24 0 25 4 36 15 36 9 0 15 -9 15 -24z m-1294 -31 c11 -8 14 -15 7 -15 -7
0 -14 -10 -14 -22 l-2 -23 -4 23 c-3 14 -12 22 -24 22 -19 0 -25 11 -12 23 10
11 28 8 49 -8z m-336 -5 c0 -5 -5 -10 -11 -10 -5 0 -7 5 -4 10 3 6 8 10 11 10
2 0 4 -4 4 -10z m-32 -22 c-3 -7 -13 -13 -23 -13 -10 0 -20 6 -22 13 -3 7 5
12 22 12 17 0 25 -5 23 -12z m432 -58 c0 -5 -9 -10 -20 -10 -11 0 -20 5 -20
10 0 6 9 10 20 10 11 0 20 -4 20 -10z m-305 -27 c-4 -10 -10 -28 -12 -40 -3
-13 -12 -23 -19 -23 -19 0 -18 16 3 51 19 31 40 40 28 12z m1681 -60 c-11 -11
-19 6 -11 24 8 17 8 17 12 0 3 -10 2 -21 -1 -24z m-1756 -18 c0 -8 -4 -15 -10
-15 -5 0 -10 7 -10 15 0 8 5 15 10 15 6 0 10 -7 10 -15z m970 -135 c0 -5 -7
-10 -15 -10 -8 0 -15 5 -15 10 0 6 7 10 15 10 8 0 15 -4 15 -10z m130 0 c0 -5
-7 -10 -16 -10 -8 0 -12 5 -9 10 3 6 10 10 16 10 5 0 9 -4 9 -10z m407 -92
c-3 -8 -6 -5 -6 6 -1 11 2 17 5 13 3 -3 4 -12 1 -19z m-1367 -8 c0 -5 -4 -10
-10 -10 -5 0 -10 5 -10 10 0 6 5 10 10 10 6 0 10 -4 10 -10z m30 -85 c0 -8 -7
-15 -15 -15 -8 0 -15 7 -15 15 0 8 7 15 15 15 8 0 15 -7 15 -15z m230 6 c0 -6
-4 -13 -10 -16 -17 -10 -11 -67 8 -81 14 -11 15 -15 3 -26 -10 -10 -15 -10
-18 -1 -3 9 -14 8 -44 -2 -30 -11 -39 -11 -39 -2 0 7 -9 18 -20 25 -24 14 -26
32 -5 32 19 0 19 4 0 40 -15 30 -15 30 -35 10 -11 -11 -20 -24 -20 -30 0 -18
-39 -50 -55 -44 -22 9 -19 24 5 24 11 0 20 6 20 14 0 8 7 16 15 20 8 3 15 15
15 26 0 19 6 20 90 20 50 0 90 -4 90 -9z m220 -131 c0 -11 -7 -20 -15 -20 -17
0 -18 2 -9 24 9 23 24 20 24 -4z m-335 -30 c-27 -12 -35 -12 -35 0 0 6 12 10
28 9 24 0 25 -1 7 -9z"/>
<path d="M1200 870 c0 -5 4 -10 9 -10 6 0 13 5 16 10 3 6 -1 10 -9 10 -9 0
-16 -4 -16 -10z"/>
<path d="M500 1985 c0 -8 2 -15 4 -15 2 0 6 7 10 15 3 8 1 15 -4 15 -6 0 -10
-7 -10 -15z"/>
<path d="M2808 1993 c7 -3 16 -2 19 1 4 3 -2 6 -13 5 -11 0 -14 -3 -6 -6z"/>
<path d="M3300 1960 c-13 -9 -13 -10 0 -10 8 0 25 -3 38 -6 16 -5 22 -2 22 10
0 18 -36 22 -60 6z"/>
<path d="M3256 1951 c-3 -5 1 -14 9 -21 8 -7 16 -31 16 -54 1 -22 3 -33 6 -22
3 10 2 38 -2 62 -6 42 -17 55 -29 35z"/>
<path d="M2773 1923 c-18 -2 -33 -9 -33 -15 0 -6 11 -8 28 -3 15 3 47 10 72
14 l45 8 -40 0 c-22 0 -55 -2 -72 -4z"/>
<path d="M3225 1910 c4 -6 11 -8 16 -5 14 9 11 15 -7 15 -8 0 -12 -5 -9 -10z"/>
<path d="M3342 1875 c4 -58 18 -58 18 0 0 25 -5 45 -10 45 -6 0 -9 -20 -8 -45z"/>
<path d="M1920 1890 c0 -12 17 -12 45 0 17 7 15 9 -12 9 -18 1 -33 -3 -33 -9z"/>
<path d="M1793 1863 c9 -2 25 -2 35 0 9 3 1 5 -18 5 -19 0 -27 -2 -17 -5z"/>
<path d="M2735 1854 c-18 -13 -18 -14 8 -14 15 0 27 4 27 9 0 17 -15 19 -35 5z"/>
<path d="M1747 1819 c-14 -15 -16 -28 -11 -57 4 -20 11 -40 17 -43 5 -4 10
-26 10 -50 0 -56 17 -73 65 -66 20 3 31 3 24 0 -19 -7 -4 -23 23 -23 13 0 30
-7 39 -15 20 -20 21 -20 55 15 24 26 33 29 62 23 31 -6 33 -5 20 10 -17 21 2
23 23 2 8 -8 19 -15 25 -15 18 0 12 18 -8 30 -21 11 -18 50 3 50 7 0 22 18 35
40 l22 40 -29 0 c-25 0 -29 -4 -25 -19 3 -10 0 -22 -6 -25 -6 -4 -11 0 -11 10
0 14 -6 15 -37 8 -66 -14 -146 -9 -176 10 -20 14 -30 16 -40 7 -21 -16 -67 8
-67 36 0 12 5 25 10 28 12 7 14 25 3 24 -5 0 -16 -9 -26 -20z"/>
<path d="M3082 1813 c-24 -65 -24 -66 0 -59 13 3 26 6 31 6 4 0 7 18 7 40 0
48 -22 55 -38 13z"/>
<path d="M951 1794 c0 -11 3 -14 6 -6 3 7 2 16 -1 19 -3 4 -6 -2 -5 -13z"/>
<path d="M1675 1790 c9 -30 13 -35 21 -27 3 3 -2 16 -11 29 l-17 23 7 -25z"/>
<path d="M2560 1770 c0 -5 9 -10 21 -10 11 0 17 5 14 10 -3 6 -13 10 -21 10
-8 0 -14 -4 -14 -10z"/>
<path d="M926 1745 c4 -8 7 -15 9 -15 1 0 8 7 15 15 10 13 9 15 -8 15 -15 0
-20 -5 -16 -15z"/>
<path d="M2225 1750 c3 -5 8 -10 11 -10 2 0 4 5 4 10 0 6 -5 10 -11 10 -5 0
-7 -4 -4 -10z"/>
<path d="M2544 1713 c1 -19 5 -28 10 -23 6 6 5 18 -1 32 -10 21 -10 21 -9 -9z"/>
<path d="M2486 1704 c-4 -9 -4 -19 -1 -22 2 -3 7 3 11 12 4 9 4 19 1 22 -2 3
-7 -3 -11 -12z"/>
<path d="M2185 1690 c-3 -5 1 -10 10 -10 9 0 13 5 10 10 -3 6 -8 10 -10 10 -2
0 -7 -4 -10 -10z"/>
<path d="M20 1670 c0 -5 5 -10 10 -10 6 0 10 5 10 10 0 6 -4 10 -10 10 -5 0
-10 -4 -10 -10z"/>
<path d="M2560 1665 c0 -8 7 -15 15 -15 8 0 15 7 15 15 0 8 -7 15 -15 15 -8 0
-15 -7 -15 -15z"/>
<path d="M3272 1660 c0 -14 2 -19 5 -12 2 6 2 18 0 25 -3 6 -5 1 -5 -13z"/>
<path d="M2 1620 c0 -14 2 -19 5 -12 2 6 2 18 0 25 -3 6 -5 1 -5 -13z"/>
<path d="M2138 1633 c7 -3 16 -2 19 1 4 3 -2 6 -13 5 -11 0 -14 -3 -6 -6z"/>
<path d="M3310 1627 c-42 -20 -49 -31 -40 -68 l8 -34 1 38 c1 36 2 37 41 37
33 0 40 3 40 20 0 22 -13 24 -50 7z"/>
<path d="M2821 1614 c0 -11 3 -14 6 -6 3 7 2 16 -1 19 -3 4 -6 -2 -5 -13z"/>
<path d="M672 1575 c-7 -14 -12 -32 -12 -40 0 -23 17 -17 23 8 2 12 8 30 12
40 11 27 -11 20 -23 -8z"/>
<path d="M1520 1590 c0 -5 7 -7 15 -4 8 4 15 8 15 10 0 2 -7 4 -15 4 -8 0 -15
-4 -15 -10z"/>
<path d="M2001 1584 c0 -11 3 -14 6 -6 3 7 2 16 -1 19 -3 4 -6 -2 -5 -13z"/>
<path d="M2162 1575 c0 -16 2 -22 5 -12 2 9 2 23 0 30 -3 6 -5 -1 -5 -18z"/>
<path d="M2190 1561 c0 -23 5 -41 10 -41 6 0 10 15 10 34 0 19 -4 38 -10 41
-6 4 -10 -10 -10 -34z"/>
<path d="M3390 1560 c0 -22 5 -40 10 -40 6 0 10 18 10 40 0 22 -4 40 -10 40
-5 0 -10 -18 -10 -40z"/>
<path d="M1465 1570 c-4 -6 -3 -14 0 -20 9 -15 35 -12 35 4 0 17 -27 29 -35
16z"/>
<path d="M2232 1540 c0 -14 2 -19 5 -12 2 6 2 18 0 25 -3 6 -5 1 -5 -13z"/>
<path d="M1520 1530 c0 -5 7 -10 16 -10 8 0 12 5 9 10 -3 6 -10 10 -16 10 -5
0 -9 -4 -9 -10z"/>
<path d="M1710 1530 c0 -5 5 -10 10 -10 6 0 10 5 10 10 0 6 -4 10 -10 10 -5 0
-10 -4 -10 -10z"/>
<path d="M1830 1519 c8 -8 23 -18 33 -22 21 -8 22 -21 0 -38 -13 -11 -17 -11
-20 -1 -6 17 -23 15 -23 -3 0 -11 12 -15 45 -15 33 0 45 4 45 14 0 8 -4 18
-10 21 -5 3 -10 15 -10 26 0 12 -7 19 -19 19 -11 0 -28 3 -38 7 -16 6 -16 5
-3 -8z"/>
<path d="M2030 1504 c0 -10 7 -14 22 -12 32 5 35 28 4 28 -17 0 -26 -5 -26
-16z"/>
<path d="M3275 1444 c-4 -41 -4 -78 -1 -81 3 -4 6 12 6 35 0 23 5 42 10 42 6
0 10 -18 10 -40 0 -29 4 -40 15 -40 17 0 18 11 9 99 -6 49 -10 61 -24 61 -15
0 -19 -13 -25 -76z"/>
<path d="M1737 1473 c-13 -12 -7 -33 8 -33 8 0 15 9 15 20 0 20 -11 26 -23 13z"/>
<path d="M1680 1424 c6 -6 6 -15 2 -19 -4 -5 1 -5 10 -2 10 3 20 2 23 -2 10
-17 42 -19 42 -2 0 21 -18 32 -41 25 -11 -4 -16 -2 -12 4 4 6 -2 10 -13 9 -14
-1 -17 -5 -11 -13z"/>
<path d="M2300 1425 c0 -8 5 -15 10 -15 6 0 10 7 10 15 0 8 -4 15 -10 15 -5 0
-10 -7 -10 -15z"/>
<path d="M2436 1375 c-19 -14 -18 -15 12 -15 18 0 32 -5 32 -12 0 -6 2 -9 5
-7 8 9 -7 49 -19 49 -6 0 -20 -7 -30 -15z"/>
<path d="M2270 1370 c0 -5 5 -10 10 -10 6 0 10 5 10 10 0 6 -4 10 -10 10 -5 0
-10 -4 -10 -10z"/>
<path d="M2128 1320 c-2 -22 0 -40 4 -40 5 0 8 18 8 40 0 22 -2 40 -4 40 -2 0
-6 -18 -8 -40z"/>
<path d="M3151 1323 c-21 -73 -10 -92 29 -53 23 23 25 47 6 73 -19 24 -24 22
-35 -20z"/>
<path d="M2287 1305 c23 -31 33 -31 33 0 0 20 -5 25 -25 25 -26 0 -26 0 -8
-25z"/>
<path d="M153 1282 c-7 -4 -9 -13 -4 -21 6 -9 10 -7 14 8 3 12 4 21 4 21 -1 0
-7 -4 -14 -8z"/>
<path d="M560 1274 c0 -8 5 -12 10 -9 6 4 8 11 5 16 -9 14 -15 11 -15 -7z"/>
<path d="M3250 1272 c0 -5 7 -17 15 -28 14 -18 14 -18 15 9 0 17 -5 27 -15 27
-8 0 -15 -4 -15 -8z"/>
<path d="M640 1159 c0 -24 4 -38 10 -34 6 3 10 22 10 41 0 19 -4 34 -10 34 -5
0 -10 -18 -10 -41z"/>
<path d="M3190 1170 c0 -16 5 -30 10 -30 6 0 10 3 10 8 0 4 3 17 6 30 5 16 2
22 -10 22 -11 0 -16 -9 -16 -30z"/>
<path d="M3272 1180 c0 -14 2 -19 5 -12 2 6 2 18 0 25 -3 6 -5 1 -5 -13z"/>
<path d="M3353 1160 c0 -25 2 -35 4 -22 2 12 2 32 0 45 -2 12 -4 2 -4 -23z"/>
<path d="M800 1100 c0 -17 -7 -20 -40 -20 -30 0 -40 -4 -40 -16 0 -9 -8 -18
-19 -21 -21 -5 -18 -38 5 -47 20 -7 17 -35 -6 -81 -24 -48 -26 -69 -4 -61 9 3
20 6 25 6 6 0 7 9 4 20 -5 16 -2 20 15 20 26 0 38 -29 19 -44 -8 -6 -20 -21
-27 -34 -10 -19 -10 -22 3 -22 8 0 23 17 33 38 9 20 37 56 62 79 30 28 39 43
28 43 -9 0 -21 14 -27 31 -15 44 -14 49 10 49 11 0 19 3 17 8 -3 4 -11 22 -18
40 -16 36 -40 43 -40 12z m0 -170 c0 -11 -4 -20 -8 -20 -4 0 -8 9 -9 20 -1 11
2 20 8 20 5 0 9 -9 9 -20z"/>
<path d="M640 928 c1 -31 1 -32 15 -14 19 25 19 46 0 46 -10 0 -15 -10 -15
-32z"/>
<path d="M560 859 c0 -11 4 -18 10 -14 5 3 7 12 3 20 -7 21 -13 19 -13 -6z"/>
<path d="M3200 800 c0 -44 2 -80 4 -80 3 0 12 7 20 16 18 17 22 64 6 64 -5 0
-10 18 -10 40 0 22 -4 40 -10 40 -6 0 -10 -33 -10 -80z"/>
<path d="M1025 827 c-4 -10 -5 -21 -1 -24 10 -10 18 4 13 24 -4 17 -4 17 -12
0z"/>
<path d="M3410 768 c-7 -18 -15 -36 -18 -40 -2 -5 8 -8 22 -8 24 0 26 4 26 40
0 48 -11 51 -30 8z"/>
<path d="M305 730 c-3 -5 -1 -10 4 -10 6 0 11 5 11 10 0 6 -2 10 -4 10 -3 0
-8 -4 -11 -10z"/>
<path d="M767 648 c-10 -11 -21 -35 -24 -54 -3 -19 -10 -34 -14 -34 -5 0 -9
-19 -8 -42 l1 -43 10 43 c9 40 28 59 28 28 0 -8 4 -17 9 -20 4 -3 8 20 8 51 0
34 5 59 12 61 12 4 16 33 4 31 -5 0 -16 -10 -26 -21z"/>
<path d="M896 603 c-4 -21 -9 -57 -13 -81 -5 -39 -6 -41 -19 -25 -12 16 -15
16 -24 3 -7 -12 -4 -16 13 -21 32 -8 44 5 51 59 4 26 9 59 12 75 3 15 1 27 -4
27 -5 0 -13 -17 -16 -37z"/>
<path d="M3362 633 c19 -40 46 -73 61 -73 21 0 22 23 2 40 -8 7 -15 19 -15 26
0 8 -11 14 -26 14 -14 0 -24 -3 -22 -7z"/>
<path d="M625 587 c-4 -10 -5 -21 -1 -24 10 -10 18 4 13 24 -4 17 -4 17 -12 0z"/>
<path d="M3200 528 c0 -25 3 -29 10 -18 13 20 13 50 0 50 -5 0 -10 -15 -10
-32z"/>
<path d="M3264 513 c-4 -16 -11 -33 -15 -39 -10 -13 8 -74 22 -74 5 0 9 32 9
70 0 74 -5 88 -16 43z"/>
<path d="M466 509 c-11 -10 -16 -22 -13 -26 10 -10 59 16 55 29 -7 19 -22 18
-42 -3z"/>
<path d="M800 496 c0 -9 5 -16 10 -16 6 0 10 4 10 9 0 6 -4 13 -10 16 -5 3
-10 -1 -10 -9z"/>
<path d="M50 490 c-11 -7 -7 -10 18 -10 20 0 31 4 27 10 -8 13 -26 13 -45 0z"/>
<path d="M160 490 c0 -5 9 -10 21 -10 11 0 17 5 14 10 -3 6 -13 10 -21 10 -8
0 -14 -4 -14 -10z"/>
<path d="M500 468 c0 -29 17 -41 39 -29 32 17 27 41 -9 41 -17 0 -30 -5 -30
-12z"/>
<path d="M3360 470 c0 -5 18 -10 40 -10 22 0 40 5 40 10 0 6 -18 10 -40 10
-22 0 -40 -4 -40 -10z"/>
<path d="M80 440 c0 -11 5 -20 10 -20 6 0 10 9 10 20 0 11 -4 20 -10 20 -5 0
-10 -9 -10 -20z"/>
<path d="M866 435 c-4 -17 -1 -31 8 -41 13 -12 14 -10 9 23 -7 48 -9 50 -17
18z"/>
<path d="M480 386 c0 -17 24 -38 33 -29 15 15 6 43 -13 43 -11 0 -20 -6 -20
-14z"/>
<path d="M852 348 c-19 -19 -14 -37 8 -31 11 3 20 14 20 24 0 22 -11 24 -28 7z"/>
<path d="M760 326 c0 -9 7 -12 20 -9 11 3 20 9 20 14 0 5 -9 9 -20 9 -11 0
-20 -6 -20 -14z"/>
<path d="M910 331 c0 -5 7 -11 14 -14 10 -4 13 -1 9 9 -6 15 -23 19 -23 5z"/>
<path d="M460 280 c0 -22 4 -40 9 -40 5 0 11 18 13 40 2 28 0 40 -9 40 -8 0
-13 -14 -13 -40z"/>
<path d="M52 260 c-14 -13 -13 -15 6 -18 25 -4 26 -8 11 -51 -9 -25 -16 -31
-40 -31 -24 0 -29 -4 -29 -23 0 -13 6 -29 12 -35 10 -10 10 -15 -2 -22 -17
-10 -16 -12 28 -34 34 -17 33 -18 45 24 3 11 16 3 47 -28 l43 -43 136 3 136 3
-24 22 c-18 17 -28 20 -42 13 -25 -14 -29 -13 -29 13 0 12 -7 31 -15 41 -8 11
-15 35 -15 53 0 32 -21 46 -35 23 -10 -16 -45 -12 -45 5 0 8 -7 15 -15 15 -9
0 -21 12 -27 26 -9 20 -17 24 -35 19 -18 -4 -25 0 -33 20 -7 19 -16 24 -36 23
-15 -2 -34 -9 -42 -18z m53 -90 c3 -5 -1 -10 -9 -10 -9 0 -16 5 -16 10 0 6 4
10 9 10 6 0 13 -4 16 -10z"/>
<path d="M298 233 c7 -3 16 -2 19 1 4 3 -2 6 -13 5 -11 0 -14 -3 -6 -6z"/>
<path d="M800 229 c0 -5 5 -7 10 -4 6 3 10 8 10 11 0 2 -4 4 -10 4 -5 0 -10
-5 -10 -11z"/>
<path d="M2960 208 c1 -31 1 -32 15 -14 19 25 19 46 0 46 -10 0 -15 -10 -15
-32z"/>
<path d="M800 123 c1 -36 2 -37 15 -19 19 26 19 56 0 56 -11 0 -15 -11 -15
-37z"/>
<path d="M3040 103 c0 -13 5 -23 10 -23 13 0 13 11 0 30 -8 12 -10 11 -10 -7z"/>
<path d="M3796 91 c-3 -5 0 -12 6 -15 7 -3 1 -4 -13 -1 -30 5 -41 -10 -32 -44
4 -16 11 -19 28 -15 13 3 26 1 29 -5 16 -25 27 -8 24 36 -2 35 -7 49 -20 51
-9 2 -19 -1 -22 -7z"/>
<path d="M670 75 c0 -8 -6 -15 -14 -15 -7 0 -16 -9 -19 -20 -6 -23 -33 -26
-56 -6 -14 12 -19 10 -41 -11 l-25 -24 71 2 72 2 20 38 c19 35 19 49 0 49 -4
0 -8 -7 -8 -15z"/>
<path d="M2880 33 c0 -23 5 -33 15 -33 18 0 18 8 0 40 l-14 25 -1 -32z"/>
</g>
</svg>
